<mxfile host="app.diagrams.net" agent="Mozilla/5.0 (Windows NT 10.0; Win64; x64) AppleWebKit/537.36 (KHTML, like Gecko) Chrome/128.0.0.0 Safari/537.36" version="24.7.12">
  <diagram name="Page-1" id="sRq_dZW86Uf6qP65e8Ep">
    <mxGraphModel dx="2883" dy="1104" grid="1" gridSize="10" guides="1" tooltips="1" connect="1" arrows="1" fold="1" page="1" pageScale="1" pageWidth="850" pageHeight="1100" math="0" shadow="0">
      <root>
        <mxCell id="0" />
        <mxCell id="1" parent="0" />
        <mxCell id="tN_1SF14fpyKrbNFMOkT-1" value="Home" style="ellipse;whiteSpace=wrap;html=1;fillColor=#d5e8d4;strokeColor=#82b366;" vertex="1" parent="1">
          <mxGeometry x="360" y="190" width="120" height="80" as="geometry" />
        </mxCell>
        <mxCell id="tN_1SF14fpyKrbNFMOkT-2" value="" style="endArrow=none;html=1;rounded=0;entryX=0.5;entryY=1;entryDx=0;entryDy=0;" edge="1" parent="1" target="tN_1SF14fpyKrbNFMOkT-1">
          <mxGeometry width="50" height="50" relative="1" as="geometry">
            <mxPoint x="420" y="320" as="sourcePoint" />
            <mxPoint x="450" y="540" as="targetPoint" />
          </mxGeometry>
        </mxCell>
        <mxCell id="tN_1SF14fpyKrbNFMOkT-6" value="" style="edgeStyle=orthogonalEdgeStyle;rounded=0;orthogonalLoop=1;jettySize=auto;html=1;exitX=1;exitY=0.5;exitDx=0;exitDy=0;" edge="1" parent="1" source="tN_1SF14fpyKrbNFMOkT-3" target="tN_1SF14fpyKrbNFMOkT-4">
          <mxGeometry relative="1" as="geometry">
            <mxPoint x="600" y="360" as="sourcePoint" />
          </mxGeometry>
        </mxCell>
        <mxCell id="tN_1SF14fpyKrbNFMOkT-7" value="" style="edgeStyle=orthogonalEdgeStyle;rounded=0;orthogonalLoop=1;jettySize=auto;html=1;exitX=0;exitY=0.5;exitDx=0;exitDy=0;" edge="1" parent="1" source="tN_1SF14fpyKrbNFMOkT-3" target="tN_1SF14fpyKrbNFMOkT-5">
          <mxGeometry relative="1" as="geometry">
            <mxPoint x="260" y="360" as="sourcePoint" />
          </mxGeometry>
        </mxCell>
        <mxCell id="tN_1SF14fpyKrbNFMOkT-22" value="" style="edgeStyle=orthogonalEdgeStyle;rounded=0;orthogonalLoop=1;jettySize=auto;html=1;" edge="1" parent="1" source="tN_1SF14fpyKrbNFMOkT-3" target="tN_1SF14fpyKrbNFMOkT-21">
          <mxGeometry relative="1" as="geometry" />
        </mxCell>
        <mxCell id="tN_1SF14fpyKrbNFMOkT-3" value="Aircraft List" style="ellipse;whiteSpace=wrap;html=1;fillColor=#e1d5e7;strokeColor=#9673a6;" vertex="1" parent="1">
          <mxGeometry x="360" y="320" width="120" height="80" as="geometry" />
        </mxCell>
        <mxCell id="tN_1SF14fpyKrbNFMOkT-20" value="" style="edgeStyle=orthogonalEdgeStyle;rounded=0;orthogonalLoop=1;jettySize=auto;html=1;" edge="1" parent="1" source="tN_1SF14fpyKrbNFMOkT-4" target="tN_1SF14fpyKrbNFMOkT-17">
          <mxGeometry relative="1" as="geometry" />
        </mxCell>
        <mxCell id="tN_1SF14fpyKrbNFMOkT-4" value="Maintenance record management" style="ellipse;whiteSpace=wrap;html=1;fillColor=#e1d5e7;strokeColor=#9673a6;" vertex="1" parent="1">
          <mxGeometry x="830" y="320" width="120" height="80" as="geometry" />
        </mxCell>
        <mxCell id="tN_1SF14fpyKrbNFMOkT-9" value="" style="edgeStyle=orthogonalEdgeStyle;rounded=0;orthogonalLoop=1;jettySize=auto;html=1;entryX=0.5;entryY=0;entryDx=0;entryDy=0;" edge="1" parent="1" source="tN_1SF14fpyKrbNFMOkT-5" target="tN_1SF14fpyKrbNFMOkT-10">
          <mxGeometry relative="1" as="geometry">
            <mxPoint x="-20" y="480" as="targetPoint" />
          </mxGeometry>
        </mxCell>
        <mxCell id="tN_1SF14fpyKrbNFMOkT-5" value="Performance metrics dashboard" style="ellipse;whiteSpace=wrap;html=1;fillColor=#e1d5e7;strokeColor=#9673a6;" vertex="1" parent="1">
          <mxGeometry x="-130" y="320" width="120" height="80" as="geometry" />
        </mxCell>
        <mxCell id="tN_1SF14fpyKrbNFMOkT-12" value="" style="edgeStyle=orthogonalEdgeStyle;rounded=0;orthogonalLoop=1;jettySize=auto;html=1;" edge="1" parent="1" source="tN_1SF14fpyKrbNFMOkT-10" target="tN_1SF14fpyKrbNFMOkT-11">
          <mxGeometry relative="1" as="geometry" />
        </mxCell>
        <mxCell id="tN_1SF14fpyKrbNFMOkT-14" value="" style="edgeStyle=orthogonalEdgeStyle;rounded=0;orthogonalLoop=1;jettySize=auto;html=1;" edge="1" parent="1" source="tN_1SF14fpyKrbNFMOkT-10">
          <mxGeometry relative="1" as="geometry">
            <mxPoint x="30" y="520" as="targetPoint" />
          </mxGeometry>
        </mxCell>
        <mxCell id="tN_1SF14fpyKrbNFMOkT-10" value="edit metrics" style="ellipse;whiteSpace=wrap;html=1;fillColor=#f8cecc;strokeColor=#b85450;" vertex="1" parent="1">
          <mxGeometry x="-130" y="480" width="120" height="80" as="geometry" />
        </mxCell>
        <mxCell id="tN_1SF14fpyKrbNFMOkT-11" value="add metrics" style="ellipse;whiteSpace=wrap;html=1;fillColor=#f8cecc;strokeColor=#b85450;" vertex="1" parent="1">
          <mxGeometry x="-300" y="480" width="120" height="80" as="geometry" />
        </mxCell>
        <mxCell id="tN_1SF14fpyKrbNFMOkT-13" value="delete metrics" style="ellipse;whiteSpace=wrap;html=1;fillColor=#f8cecc;strokeColor=#b85450;" vertex="1" parent="1">
          <mxGeometry x="30" y="480" width="120" height="80" as="geometry" />
        </mxCell>
        <mxCell id="tN_1SF14fpyKrbNFMOkT-15" value="" style="edgeStyle=orthogonalEdgeStyle;rounded=0;orthogonalLoop=1;jettySize=auto;html=1;" edge="1" parent="1" source="tN_1SF14fpyKrbNFMOkT-17">
          <mxGeometry relative="1" as="geometry">
            <mxPoint x="780" y="520" as="targetPoint" />
          </mxGeometry>
        </mxCell>
        <mxCell id="tN_1SF14fpyKrbNFMOkT-16" value="" style="edgeStyle=orthogonalEdgeStyle;rounded=0;orthogonalLoop=1;jettySize=auto;html=1;" edge="1" parent="1" source="tN_1SF14fpyKrbNFMOkT-17" target="tN_1SF14fpyKrbNFMOkT-19">
          <mxGeometry relative="1" as="geometry" />
        </mxCell>
        <mxCell id="tN_1SF14fpyKrbNFMOkT-17" value="edit maintenance" style="ellipse;whiteSpace=wrap;html=1;fillColor=#f8cecc;strokeColor=#b85450;" vertex="1" parent="1">
          <mxGeometry x="830" y="480" width="120" height="80" as="geometry" />
        </mxCell>
        <mxCell id="tN_1SF14fpyKrbNFMOkT-18" value="add maintenance" style="ellipse;whiteSpace=wrap;html=1;fillColor=#f8cecc;strokeColor=#b85450;" vertex="1" parent="1">
          <mxGeometry x="660" y="480" width="120" height="80" as="geometry" />
        </mxCell>
        <mxCell id="tN_1SF14fpyKrbNFMOkT-19" value="delete maintenance" style="ellipse;whiteSpace=wrap;html=1;fillColor=#f8cecc;strokeColor=#b85450;" vertex="1" parent="1">
          <mxGeometry x="990" y="480" width="120" height="80" as="geometry" />
        </mxCell>
        <mxCell id="tN_1SF14fpyKrbNFMOkT-21" value="add aircraft" style="ellipse;whiteSpace=wrap;html=1;fillColor=#f8cecc;strokeColor=#b85450;" vertex="1" parent="1">
          <mxGeometry x="360" y="480" width="120" height="80" as="geometry" />
        </mxCell>
      </root>
    </mxGraphModel>
  </diagram>
</mxfile>
